<svg width="159" height="159" viewBox="0 0 159 159" fill="none" xmlns="http://www.w3.org/2000/svg">
<rect x="1" y="1" width="157" height="157" rx="78.5" stroke="white" stroke-width="2"/>
<g clip-path="url(#clip0_532_175)">
<path d="M79 60.3219C85.4125 60.3219 86.1719 60.35 88.6938 60.4625C91.0375 60.5656 92.3031 60.9594 93.1469 61.2875C94.2625 61.7188 95.0688 62.2438 95.9031 63.0781C96.7469 63.9219 97.2625 64.7188 97.6938 65.8344C98.0219 66.6781 98.4156 67.9531 98.5188 70.2875C98.6313 72.8187 98.6594 73.5781 98.6594 79.9813C98.6594 86.3938 98.6313 87.1531 98.5188 89.675C98.4156 92.0188 98.0219 93.2844 97.6938 94.1281C97.2625 95.2438 96.7375 96.05 95.9031 96.8844C95.0594 97.7281 94.2625 98.2438 93.1469 98.675C92.3031 99.0031 91.0281 99.3969 88.6938 99.5C86.1625 99.6125 85.4031 99.6406 79 99.6406C72.5875 99.6406 71.8281 99.6125 69.3063 99.5C66.9625 99.3969 65.6969 99.0031 64.8531 98.675C63.7375 98.2438 62.9313 97.7188 62.0969 96.8844C61.2531 96.0406 60.7375 95.2438 60.3063 94.1281C59.9781 93.2844 59.5844 92.0094 59.4813 89.675C59.3688 87.1438 59.3406 86.3844 59.3406 79.9813C59.3406 73.5688 59.3688 72.8094 59.4813 70.2875C59.5844 67.9437 59.9781 66.6781 60.3063 65.8344C60.7375 64.7188 61.2625 63.9125 62.0969 63.0781C62.9406 62.2344 63.7375 61.7188 64.8531 61.2875C65.6969 60.9594 66.9719 60.5656 69.3063 60.4625C71.8281 60.35 72.5875 60.3219 79 60.3219ZM79 56C72.4844 56 71.6688 56.0281 69.1094 56.1406C66.5594 56.2531 64.8063 56.6656 63.2875 57.2562C61.7031 57.875 60.3625 58.6906 59.0313 60.0312C57.6906 61.3625 56.875 62.7031 56.2563 64.2781C55.6656 65.8063 55.2531 67.55 55.1406 70.1C55.0281 72.6687 55 73.4844 55 80C55 86.5156 55.0281 87.3312 55.1406 89.8906C55.2531 92.4406 55.6656 94.1938 56.2563 95.7125C56.875 97.2969 57.6906 98.6375 59.0313 99.9688C60.3625 101.3 61.7031 102.125 63.2781 102.734C64.8063 103.325 66.55 103.737 69.1 103.85C71.6594 103.962 72.475 103.991 78.9906 103.991C85.5063 103.991 86.3219 103.962 88.8813 103.85C91.4313 103.737 93.1844 103.325 94.7031 102.734C96.2781 102.125 97.6188 101.3 98.95 99.9688C100.281 98.6375 101.106 97.2969 101.716 95.7219C102.306 94.1938 102.719 92.45 102.831 89.9C102.944 87.3406 102.972 86.525 102.972 80.0094C102.972 73.4938 102.944 72.6781 102.831 70.1188C102.719 67.5688 102.306 65.8156 101.716 64.2969C101.125 62.7031 100.309 61.3625 98.9688 60.0312C97.6375 58.7 96.2969 57.875 94.7219 57.2656C93.1938 56.675 91.45 56.2625 88.9 56.15C86.3313 56.0281 85.5156 56 79 56Z" fill="white"/>
<path d="M79 67.6719C72.1938 67.6719 66.6719 73.1938 66.6719 80C66.6719 86.8062 72.1938 92.3281 79 92.3281C85.8062 92.3281 91.3281 86.8062 91.3281 80C91.3281 73.1938 85.8062 67.6719 79 67.6719ZM79 87.9969C74.5844 87.9969 71.0031 84.4156 71.0031 80C71.0031 75.5844 74.5844 72.0031 79 72.0031C83.4156 72.0031 86.9969 75.5844 86.9969 80C86.9969 84.4156 83.4156 87.9969 79 87.9969Z" fill="white"/>
<path d="M94.6937 67.1843C94.6937 68.778 93.4 70.0624 91.8156 70.0624C90.2219 70.0624 88.9375 68.7687 88.9375 67.1843C88.9375 65.5905 90.2313 64.3062 91.8156 64.3062C93.4 64.3062 94.6937 65.5999 94.6937 67.1843Z" fill="white"/>
</g>
<defs>
<clipPath id="clip0_532_175">
<rect width="48" height="48" fill="white" transform="translate(55 56)"/>
</clipPath>
</defs>
</svg>
