<svg width="159" height="159" viewBox="0 0 159 159" fill="none" xmlns="http://www.w3.org/2000/svg">
<rect x="1" y="1" width="157" height="157" rx="78.5" stroke="white" stroke-width="2"/>
<g clip-path="url(#clip0_532_176)">
<path d="M99.4469 56H58.5437C56.5844 56 55 57.5469 55 59.4594V100.531C55 102.444 56.5844 104 58.5437 104H99.4469C101.406 104 103 102.444 103 100.541V59.4594C103 57.5469 101.406 56 99.4469 56ZM69.2406 96.9031H62.1156V73.9906H69.2406V96.9031ZM65.6781 70.8688C63.3906 70.8688 61.5438 69.0219 61.5438 66.7437C61.5438 64.4656 63.3906 62.6187 65.6781 62.6187C67.9563 62.6187 69.8031 64.4656 69.8031 66.7437C69.8031 69.0125 67.9563 70.8688 65.6781 70.8688ZM95.9031 96.9031H88.7875V85.7656C88.7875 83.1125 88.7406 79.6906 85.0844 79.6906C81.3812 79.6906 80.8187 82.5875 80.8187 85.5781V96.9031H73.7125V73.9906H80.5375V77.1219H80.6312C81.5781 75.3219 83.9031 73.4188 87.3625 73.4188C94.5719 73.4188 95.9031 78.1625 95.9031 84.3313V96.9031Z" fill="white"/>
</g>
<defs>
<clipPath id="clip0_532_176">
<rect width="48" height="48" fill="white" transform="translate(55 56)"/>
</clipPath>
</defs>
</svg>
