<svg width="1364" height="905" viewBox="0 0 1364 905" fill="none" xmlns="http://www.w3.org/2000/svg">
<rect width="1364" height="905" fill="black"/>
<path d="M659 389C659 396.732 665.268 403 673 403H690C697.732 403 704 396.732 704 389V343C704 335.268 710.268 329 718 329H799C806.732 329 813 335.268 813 343V419C813 426.732 806.732 433 799 433H750C742.268 433 736 439.268 736 447V459C736 466.732 742.268 473 750 473H799C806.732 473 813 479.268 813 487V563C813 570.732 806.732 577 799 577H718C710.268 577 704 570.732 704 563V521C704 513.268 697.732 507 690 507H673C665.268 507 659 513.268 659 521V563C659 570.732 652.732 577 645 577H564C556.268 577 550 570.732 550 563V487C550 479.268 556.268 473 564 473H613C620.732 473 627 466.732 627 459V447C627 439.268 620.732 433 613 433H564C556.268 433 550 426.732 550 419V343C550 335.268 556.268 329 564 329H645C652.732 329 659 335.268 659 343V389Z" fill="white"/>
<path d="M520 419C520 426.732 513.732 433 506 433H326C318.268 433 312 439.268 312 447V459C312 466.732 318.268 473 326 473H506C513.732 473 520 479.268 520 487V563C520 570.732 513.732 577 506 577H271C263.268 577 257 570.732 257 563V343C257 335.268 263.268 329 271 329H506C513.732 329 520 335.268 520 343V419Z" fill="white"/>
<path d="M1106 419C1106 426.732 1099.73 433 1092 433H912C904.268 433 898 439.268 898 447V459C898 466.732 904.268 473 912 473H1092C1099.73 473 1106 479.268 1106 487V563C1106 570.732 1099.73 577 1092 577H857C849.268 577 843 570.732 843 563V343C843 335.268 849.268 329 857 329H1092C1099.73 329 1106 335.268 1106 343V419Z" fill="white"/>
</svg>
